<?xml version="1.0" standalone="no"?><!DOCTYPE svg PUBLIC "-//W3C//DTD SVG 1.1//EN" "http://www.w3.org/Graphics/SVG/1.1/DTD/svg11.dtd"><svg t="1561709572347" class="icon" viewBox="0 0 1417 1024" version="1.1" xmlns="http://www.w3.org/2000/svg" p-id="4252" width="66.421875" height="48" xmlns:xlink="http://www.w3.org/1999/xlink"><defs><style type="text/css"></style></defs><path d="M1384.763077 1009.270154c18.274462 0 33.083077-14.414769 33.083077-32.059077a32.531692 32.531692 0 0 0-33.083077-31.980308H426.929231a32.531692 32.531692 0 0 0-33.004308 31.980308c0 17.644308 14.808615 31.980308 33.004308 31.980308h957.991384M1375.625846 565.326769a32.925538 32.925538 0 0 0 33.792-31.980307 32.925538 32.925538 0 0 0-33.792-31.980308H396.681846a32.925538 32.925538 0 0 0-33.792 31.980308c0 17.644308 15.123692 31.980308 33.792 31.980307h978.944M1367.197538 149.346462a32.925538 32.925538 0 0 0 33.792-31.980308 32.925538 32.925538 0 0 0-33.792-32.059077H388.332308a32.925538 32.925538 0 0 0-33.792 32.059077c0 17.644308 15.123692 31.980308 33.792 31.980308h978.944M56.32 117.523692c-18.510769 11.342769-18.116923 29.932308 0 41.117539l166.360615 102.4c18.432 11.264 33.398154 3.387077 33.398154-19.377231V34.500923c0-22.055385-15.281231-30.562462-33.398154-19.377231l-166.360615 102.4zM220.396308 1002.732308a32.925538 32.925538 0 0 0 33.792-32.059077 32.925538 32.925538 0 0 0-33.792-31.980308H85.385846a32.925538 32.925538 0 0 0-33.870769 31.980308c0 17.644308 15.202462 31.980308 33.870769 31.980307h135.010462M220.396308 576.039385a32.925538 32.925538 0 0 0 33.792-32.059077 32.925538 32.925538 0 0 0-33.792-31.980308H85.385846a32.925538 32.925538 0 0 0-33.870769 31.980308c0 17.644308 15.202462 32.059077 33.870769 32.059077h135.010462" p-id="4253" fill="#666666"></path></svg>